#!OML:ASF H:\LiuWeirdWalks\Patient Classification 1\Patient 1\Session 1\male.ASF
:FULLY-SPECIFIED
:DEGREES
831
root 1.21373 17.8757 0.0428358 7.07632 2.8829 15.7218
lowerback 8.19347 -1.78017 -1.91604
upperback -0.341901 -1.9968 11.1828
thorax -4.5191 -0.79715 13.5902
lowerneck -22.6557 3.22155 12.1801
upperneck 25.8618 5.4106 -17.4948
head 13.3723 1.32287 -8.18634
rclavicle 7.95139e-015 3.18055e-014
rhumerus -44.2629 -19.0865 -39.4892
rradius 25.6637
rwrist -5.03933
rhand -13.8415 -4.87373
rfingers 7.12502
rthumb 12.2819 -34.4931
lclavicle 7.95139e-015 3.18055e-014
lhumerus -33.9727 -15.6413 94.8544
lradius 58.4835
lwrist 4.12979
lhand -9.03564 -6.37656
lfingers 7.12502
lthumb 16.9121 22.9071
rfemur -38.2807 -7.43214 1.50375
rtibia 31.1771
rfoot -10.0755 -22.34
rtoes -10.9398
lfemur 11.8194 2.97905 -41.7667
ltibia 1.90833e-014
lfoot -2.68042 7.56459
ltoes -7.82943
832
root 1.20034 17.8691 0.176725 7.12004 3.01846 15.7232
lowerback 8.1581 -1.82294 -1.90771
upperback -0.33934 -2.05493 11.1824
thorax -4.48221 -0.828562 13.5878
lowerneck -22.724 3.25053 12.2063
upperneck 25.7593 5.4615 -17.6133
head 13.3616 1.33098 -8.22727
rclavicle 2.62396e-014 -2.54444e-014
rhumerus -43.8415 -18.9952 -39.7073
rradius 25.6556
rwrist -5.05568
rhand -13.8747 -4.81347
rfingers 7.12502
rthumb 12.2499 -34.4347
lclavicle 2.62396e-014 -2.54444e-014
lhumerus -34.0991 -15.765 95.176
lradius 58.2443
lwrist 4.00897
lhand -9.10998 -6.4412
lfingers 7.12502
lthumb 16.8406 22.8485
rfemur -37.9685 -7.55505 1.64599
rtibia 31.6256
rfoot -9.85468 -22.965
rtoes -10.3335
lfemur 12.2704 2.68582 -41.6991
ltibia 0
lfoot -2.37471 7.75259
ltoes -7.64841
833
root 1.18718 17.8674 0.313869 7.1757 3.19023 15.6719
lowerback 8.08749 -1.87128 -1.82248
upperback -0.351109 -2.11199 11.2043
thorax -4.443 -0.8605 13.5623
lowerneck -22.7626 3.26478 12.2312
upperneck 25.6613 5.49751 -17.7419
head 13.3438 1.3323 -8.27466
rclavicle 1.59028e-015 -9.54166e-015
rhumerus -43.4209 -18.9251 -39.8695
rradius 25.6451
rwrist -5.06472
rhand -13.9005 -4.76602
rfingers 7.12502
rthumb 12.225 -34.3887
lclavicle 1.59028e-015 -9.54166e-015
lhumerus -34.253 -15.9085 95.5418
lradius 57.9562
lwrist 3.83638
lhand -9.09844 -6.48437
lfingers 7.12502
lthumb 16.8517 22.8044
rfemur -37.6125 -7.61736 1.79867
rtibia 31.9615
rfoot -9.52129 -23.5364
rtoes -9.91291
lfemur 12.7159 2.35959 -41.5758
ltibia 4.13472e-014
lfoot -2.00125 7.92786
ltoes -7.36624
834
root 1.17435 17.8724 0.453452 7.23989 3.36454 15.533
lowerback 8.01029 -1.91288 -1.63442
upperback -0.384787 -2.14671 11.2573
thorax -4.43188 -0.880917 13.5086
lowerneck -22.7718 3.26108 12.2403
upperneck 25.587 5.51493 -17.8587
head 13.3248 1.32637 -8.31852
rclavicle -2.22639e-014 3.81667e-014
rhumerus -43.0095 -18.8689 -39.9678
rradius 25.6264
rwrist -5.05476
rhand -13.9193 -4.75475
rfingers 7.12502
rthumb 12.2069 -34.3785
lclavicle -2.22639e-014 3.81667e-014
lhumerus -34.4536 -16.0762 95.9587
lradius 57.6238
lwrist 3.6823
lhand -9.08088 -6.52235
lfingers 7.12502
lthumb 16.8686 22.765
rfemur -37.2472 -7.60294 2.00375
rtibia 32.1697
rfoot -8.99016 -24.0303
rtoes -9.64834
lfemur 13.1412 2.0355 -41.3606
ltibia -1.59028e-014
lfoot -1.54718 8.07534
ltoes -7.06205
835
root 1.16248 17.8848 0.595046 7.31501 3.52504 15.3182
lowerback 7.93107 -1.94378 -1.35763
upperback -0.436524 -2.15556 11.3389
thorax -4.44769 -0.888038 13.4324
lowerneck -22.7772 3.24797 12.2436
upperneck 25.535 5.52393 -17.9764
head 13.3123 1.31619 -8.36514
rclavicle 3.49861e-014 -6.36111e-015
rhumerus -42.6027 -18.8014 -40.0236
rradius 25.6188
rwrist -5.05589
rhand -13.9481 -4.78583
rfingers 7.12502
rthumb 12.1791 -34.4113
lclavicle 3.49861e-014 -6.36111e-015
lhumerus -34.6861 -16.263 96.4261
lradius 57.2331
lwrist 3.5531
lhand -9.03919 -6.55749
lfingers 7.12502
lthumb 16.9087 22.7264
rfemur -36.8971 -7.54084 2.25976
rtibia 32.256
rfoot -8.17113 -24.3924
rtoes -9.47225
lfemur 13.536 1.72678 -41.0669
ltibia -3.18055e-015
lfoot -1.01365 8.18155
ltoes -6.63718
836
root 1.15198 17.903 0.738638 7.38901 3.63474 15.0312
lowerback 7.85049 -1.94859 -0.991355
upperback -0.497529 -2.1191 11.44
thorax -4.4861 -0.872903 13.3202
lowerneck -22.7822 3.21239 12.2134
upperneck 25.5291 5.50797 -18.0609
head 13.311 1.29551 -8.39933
rclavicle -2.06736e-014 1.04958e-013
rhumerus -42.2182 -18.7425 -40.0248
rradius 25.6157
rwrist -5.023
rhand -13.9812 -4.82574
rfingers 7.12502
rthumb 12.1473 -34.4531
lclavicle -2.06736e-014 1.04958e-013
lhumerus -34.9562 -16.475 96.9408
lradius 56.7867
lwrist 3.43116
lhand -9.00099 -6.62524
lfingers 7.12502
lthumb 16.9455 22.6555
rfemur -36.5714 -7.45115 2.57964
rtibia 32.2446
rfoot -7.1364 -24.5544
rtoes -9.20505
lfemur 13.905 1.47179 -40.7014
ltibia 6.36111e-015
lfoot -0.407399 8.24275
ltoes -6.15012
837
root 1.14258 17.9245 0.883903 7.45564 3.69034 14.6988
lowerback 7.79856 -1.92721 -0.569003
upperback -0.56831 -2.03884 11.5568
thorax -4.56262 -0.835041 13.1906
lowerneck -22.8005 3.16414 12.1498
upperneck 25.5644 5.48176 -18.1188
head 13.325 1.26951 -8.42144
rclavicle 6.2816e-014 -6.36111e-015
rhumerus -41.8464 -18.6488 -39.9957
rradius 25.6369
rwrist -5.0298
rhand -14.0284 -4.86072
rfingers 7.12502
rthumb 12.1017 -34.4908
lclavicle 6.2816e-014 -6.36111e-015
lhumerus -35.2611 -16.6935 97.5017
lradius 56.2872
lwrist 3.3105
lhand -8.99918 -6.73553
lfingers 7.12502
lthumb 16.9472 22.5451
rfemur -36.2617 -7.36858 2.95166
rtibia 32.1797
rfoot -5.99983 -24.4762
rtoes -8.77617
lfemur 14.2585 1.27351 -40.2903
ltibia 8.26944e-014
lfoot 0.268725 8.24405
ltoes -5.68686
838
root 1.13446 17.9467 1.0305 7.51828 3.66964 14.3628
lowerback 7.74973 -1.87765 -0.138609
upperback -0.63432 -1.9203 11.6756
thorax -4.64388 -0.778529 13.055
lowerneck -22.836 3.11256 12.0759
upperneck 25.6329 5.45272 -18.1623
head 13.355 1.24225 -8.4394
rclavicle -1.51076e-014 2.54444e-014
rhumerus -41.4667 -18.5288 -39.9549
rradius 25.6762
rwrist -5.05379
rhand -14.1089 -4.89054
rfingers 7.12502
rthumb 12.0241 -34.5251
lclavicle -1.51076e-014 2.54444e-014
lhumerus -35.5984 -16.9039 98.0921
lradius 55.7579
lwrist 3.17957
lhand -9.04645 -6.88239
lfingers 7.12502
lthumb 16.9017 22.4021
rfemur -35.9751 -7.33179 3.35562
rtibia 32.1103
rfoot -4.91142 -24.1602
rtoes -8.05318
lfemur 14.5913 1.14796 -39.8811
ltibia -1.59028e-014
lfoot 1.01478 8.18238
ltoes -5.0964
839
root 1.12724 17.9678 1.17804 7.57356 3.56885 14.0537
lowerback 7.71796 -1.79909 0.264009
upperback -0.698911 -1.76501 11.7878
thorax -4.73959 -0.702927 12.9263
lowerneck -22.8706 3.06322 12.0079
upperneck 25.7111 5.42597 -18.2054
head 13.3894 1.21673 -8.45887
rclavicle -2.22639e-014 5.40694e-014
rhumerus -41.081 -18.3837 -39.9004
rradius 25.7362
rwrist -5.1206
rhand -14.2252 -4.92493
rfingers 7.12502
rthumb 11.912 -34.566
lclavicle -2.22639e-014 5.40694e-014
lhumerus -35.9776 -17.0907 98.7063
lradius 55.2233
lwrist 3.04289
lhand -9.0863 -7.00752
lfingers 7.12502
lthumb 16.8634 22.2803
rfemur -35.7066 -7.37379 3.77832
rtibia 32.0822
rfoot -3.97796 -23.6629
rtoes -7.08573
lfemur 14.9109 1.09703 -39.5037
ltibia -6.36111e-015
lfoot 1.84854 8.04583
ltoes -4.46386
840
root 1.12033 17.9881 1.32543 7.62006 3.39814 13.7914
lowerback 7.71135 -1.69553 0.615139
upperback -0.745694 -1.58203 11.8841
thorax -4.83398 -0.613439 12.8081
lowerneck -22.9478 3.02652 11.944
upperneck 25.8069 5.40987 -18.2324
head 13.4419 1.19669 -8.47314
rclavicle 3.02153e-014 -5.725e-014
rhumerus -40.6513 -18.2787 -39.844
rradius 25.7973
rwrist -5.20648
rhand -14.3733 -4.99894
rfingers 7.12502
rthumb 11.7691 -34.6483
lclavicle 3.02153e-014 -5.725e-014
lhumerus -36.3713 -17.2628 99.3158
lradius 54.7063
lwrist 2.92523
lhand -9.0915 -7.08492
lfingers 7.12502
lthumb 16.8584 22.2033
rfemur -35.4472 -7.48101 4.19227
rtibia 32.1205
rfoot -3.30264 -23.0846
rtoes -5.96899
lfemur 15.2137 1.10968 -39.1743
ltibia 0
lfoot 2.77999 7.82144
ltoes -3.79756
841
root 1.11356 18.0076 1.47253 7.65173 3.1684 13.5895
lowerback 7.72503 -1.57509 0.900486
upperback -0.766393 -1.38516 11.9591
thorax -4.91214 -0.517396 12.7029
lowerneck -23.0563 3.01243 11.9116
upperneck 25.9044 5.41303 -18.2609
head 13.5071 1.18721 -8.49199
rclavicle 7.15625e-015 6.67916e-014
rhumerus -40.1684 -18.1922 -39.8147
rradius 25.8628
rwrist -5.32068
rhand -14.5611 -5.05888
rfingers 7.12502
rthumb 11.588 -34.7185
lclavicle 7.15625e-015 6.67916e-014
lhumerus -36.7781 -17.4092 99.903
lradius 54.2242
lwrist 2.79073
lhand -8.97794 -7.10237
lfingers 7.12502
lthumb 16.9677 22.1765
rfemur -35.1842 -7.6427 4.5719
rtibia 32.2332
rfoot -2.9103 -22.4956
rtoes -4.81417
lfemur 15.5081 1.17612 -38.9052
ltibia -9.54166e-015
lfoot 3.82144 7.50205
ltoes -3.01358
842
root 1.10596 18.0274 1.61868 7.65699 2.89493 13.4266
lowerback 7.77595 -1.43953 1.13803
upperback -0.770563 -1.17223 12.0179
thorax -4.99501 -0.412864 12.6069
lowerneck -23.1461 3.00659 11.9061
upperneck 25.9697 5.41657 -18.2923
head 13.5559 1.18113 -8.51358
rclavicle 1.59028e-014 -1.08139e-013
rhumerus -39.6464 -18.1503 -39.7902
rradius 25.9147
rwrist -5.43145
rhand -14.7925 -5.14651
rfingers 7.12502
rthumb 11.3649 -34.8185
lclavicle 1.59028e-014 -1.08139e-013
lhumerus -37.2258 -17.5398 100.479
lradius 53.7849
lwrist 2.64444
lhand -8.75038 -7.07389
lfingers 7.12502
lthumb 17.1867 22.186
rfemur -34.8909 -7.79292 4.91361
rtibia 32.4027
rfoot -2.81085 -21.9633
rtoes -3.73462
lfemur 15.7988 1.28726 -38.667
ltibia -9.54166e-015
lfoot 4.99198 7.08528
ltoes -2.35253
843
root 1.09765 18.0477 1.76402 7.6327 2.62177 13.3162
lowerback 7.86599 -1.31194 1.31929
upperback -0.746742 -0.976103 12.0581
thorax -5.06458 -0.316998 12.5251
lowerneck -23.2505 3.02434 11.9391
upperneck 26.0121 5.43904 -18.334
head 13.604 1.18576 -8.54208
rclavicle -4.45278e-014 1.27222e-014
rhumerus -39.0438 -18.1566 -39.8069
rradius 25.9469
rwrist -5.5306
rhand -15.0568 -5.2414
rfingers 7.12502
rthumb 11.11 -34.9273
lclavicle -4.45278e-014 1.27222e-014
lhumerus -37.6781 -17.6551 101.013
lradius 53.3965
lwrist 2.52218
lhand -8.42988 -7.00695
lfingers 7.12502
lthumb 17.4952 22.2258
rfemur -34.5418 -7.94618 5.18622
rtibia 32.6046
rfoot -2.94809 -21.4627
rtoes -2.81134
lfemur 16.0967 1.40133 -38.47
ltibia -6.67916e-014
lfoot 6.3102 6.58005
ltoes -1.72447
844
root 1.08842 18.0693 1.90841 7.57797 2.35521 13.2307
lowerback 7.97242 -1.18955 1.4798
upperback -0.705701 -0.790117 12.0834
thorax -5.12175 -0.22697 12.4387
lowerneck -23.2965 3.03659 11.9845
upperneck 26.0081 5.44821 -18.3768
head 13.6177 1.18787 -8.56942
rclavicle -1.59028e-014 -3.18055e-014
rhumerus -38.4051 -18.2099 -39.8339
rradius 25.9494
rwrist -5.5576
rhand -15.3069 -5.27236
rfingers 7.12502
rthumb 10.8687 -34.9711
lclavicle -1.59028e-014 -3.18055e-014
lhumerus -38.1628 -17.7871 101.529
lradius 53.0551
lwrist 2.43727
lhand -8.0456 -6.90795
lfingers 7.12502
lthumb 17.865 22.2915
rfemur -34.1337 -8.07736 5.40904
rtibia 32.8068
rfoot -3.23761 -20.9652
rtoes -2.0512
lfemur 16.3954 1.51525 -38.2844
ltibia 6.36111e-015
lfoot 7.7957 6.0005
ltoes -1.28477
845
root 1.07848 18.0916 2.05203 7.49489 2.11454 13.1547
lowerback 8.0943 -1.07561 1.64009
upperback -0.647675 -0.616241 12.0995
thorax -5.16614 -0.144159 12.342
lowerneck -23.3286 3.03493 12.0107
upperneck 25.9907 5.43518 -18.3924
head 13.616 1.18187 -8.58286
rclavicle -1.11319e-014 6.36111e-015
rhumerus -37.7258 -18.3396 -39.8603
rradius 25.9127
rwrist -5.50886
rhand -15.5272 -5.23021
rfingers 7.12502
rthumb 10.6562 -34.94
lclavicle -1.11319e-014 6.36111e-015
lhumerus -38.6675 -17.9403 102.027
lradius 52.7509
lwrist 2.35609
lhand -7.66681 -6.82859
lfingers 7.12502
lthumb 18.2294 22.3372
rfemur -33.6625 -8.20282 5.59729
rtibia 32.9859
rfoot -3.60979 -20.4345
rtoes -1.46576
lfemur 14.1012 1.67281 -38.0718
ltibia 5.10096
lfoot 7.08953 6.17465
ltoes -0.981405
